<svg width="421.96" height="336.4" viewBox="0 0 316.47 252.3" class="displayed_equation" xmlns="http://www.w3.org/2000/svg" xmlns:xlink="http://www.w3.org/1999/xlink">
  <defs>
    <clipPath id="svg798183092867tikz_00001g">
      <path d="M 15.734375 23.859375 L 292.863281 23.859375 L 292.863281 226.636719 L 15.734375 226.636719 Z M 15.734375 23.859375" />
    </clipPath>
    <clipPath id="svg798183092867tikz_00001b">
      <path d="M 1 1 L 8.777344 1 L 8.777344 10 L 1 10 Z M 1 1" />
    </clipPath>
    <clipPath id="svg798183092867tikz_00001a">
      <path d="M0 0H9V11H0z" />
    </clipPath>
    <g id="svg798183092867tikz_00001e" clip-path="url(#svg798183092867tikz_00001a)">
      <path d="M 4.730469 1.546875 L 1.941406 8.941406 L 4.730469 6.5 L 7.519531 8.941406 Z M 4.730469 1.546875" />
      <g clip-path="url(#svg798183092867tikz_00001b)">
        <path d="M 217.304688 2227.53125 L 189.414063 2153.585938 L 217.304688 2178 L 245.195313 2153.585938 Z M 217.304688 2227.53125" transform="matrix(.1 0 0 -.1 -17 224.3)" fill="none" stroke-width="10.774" stroke-linejoin="round" stroke="#000" stroke-miterlimit="10" />
      </g>
    </g>
    <clipPath id="svg798183092867tikz_00001c">
      <path d="M0 0H11V9H0z" />
    </clipPath>
    <g id="svg798183092867tikz_00001f" clip-path="url(#svg798183092867tikz_00001c)">
      <path d="M 2884.414063 326.867188 L 2810.46875 354.71875 L 2834.882813 326.867188 L 2810.46875 298.976563 Z M 2884.414063 326.867188" transform="matrix(.1 0 0 -.1 -279 37.3)" stroke-width="10.774" stroke-linejoin="round" stroke="#000" stroke-miterlimit="10" />
    </g>
    <clipPath id="svg798183092867tikz_00001d">
      <path d="M0 0H278V204H0z" />
    </clipPath>
    <g id="svg798183092867tikz_00001h" clip-path="url(#svg798183092867tikz_00001d)">
      <path d="M 66.230469 128.847656 C 73.007813 122.703125 80.679688 117.605469 88.71875 115.320313 C 88.71875 115.320313 109.984375 106.871094 145.652344 116.671875 C 145.652344 116.671875 188.414063 126.25 212.410156 95.269531 C 212.410156 95.269531 221.679688 85.347656 231.90625 68.390625 L 231.828125 68.34375 L 231.828125 196.613281 L 65.734375 196.613281 L 65.734375 129.78125 Z M 66.230469 128.847656" fill="#e6e6e5" />
      <path d="M 217.304688 2175.304688 L 217.304688 326.867188 L 2832.1875 326.867188" transform="matrix(.1 0 0 -.1 -15 229.3)" fill="none" stroke-width="10.774" stroke-linejoin="round" stroke="#000" stroke-miterlimit="10" />
      <use xlink:href="#svg798183092867tikz_00001e" transform="translate(2 5)" />
      <use xlink:href="#svg798183092867tikz_00001f" transform="translate(264 192)" />
      <path d="M807.34375 326.867188L807.34375 1001.59375M2468.28125 326.867188L2468.28125 1609.5625M807.34375 326.867188L807.34375 286.085938M2468.28125 326.867188L2468.28125 286.085938" transform="matrix(.1 0 0 -.1 -15 229.3)" fill="none" stroke-width="10.774" stroke-linejoin="round" stroke="#000" stroke-miterlimit="10" />
      <path d="M 391.679688 325.304688 C 434.140625 440.929688 488.632813 553.078125 549.492188 659.953125 C 650.273438 836.632813 783.398438 1029.40625 974.453125 1116.554688 C 1152.5 1197.804688 1373.125 1182.21875 1558.476563 1138.46875 C 1624.960938 1122.804688 1688.125 1112.53125 1756.875 1112.296875 C 1856.71875 1112.023438 1957.460938 1129.445313 2049.53125 1169.015625 C 2237.773438 1249.796875 2371.015625 1445.1875 2473.085938 1615.773438 C 2577.070313 1789.601563 2656.796875 1979.171875 2699.960938 2177.375" transform="matrix(.1 0 0 -.1 -15 229.3)" fill="none" stroke-width="10.774" stroke-linejoin="round" stroke="#e14b3a" stroke-miterlimit="10" />
    </g>
  </defs>
  <path d="M22 17.472656C21.867188 16.582031 21.789063 16.226563 21.542969 15.800781L21.375 15.800781 19.789063 15.921875 19.789063 16.246094C19.789063 16.246094 20.023438 16.226563 20.179688 16.226563 20.863281 16.226563 20.917969 16.773438 20.996094 17.273438L21.65625 21.199219C21.34375 21.679688 20.539063 22.742188 20.328125 22.742188 20.082031 22.742188 19.960938 22.148438 19.535156 22.148438 19.277344 22.148438 19.101563 22.292969 19.101563 22.628906 19.101563 23.039063 19.492188 23.351563 19.960938 23.351563 20.804688 23.351563 21.585938 22.09375 22.421875 20.933594 23.003906 20.128906 23.640625 19.171875 24.242188 18.109375 24.601563 17.507813 24.734375 17.007813 24.734375 16.570313 24.734375 16.089844 24.445313 15.722656 24.03125 15.722656 23.707031 15.722656 23.539063 15.921875 23.539063 16.15625 23.539063 16.582031 24.085938 16.894531 24.085938 17.183594 24.085938 17.453125 23.984375 17.71875 23.71875 18.15625L22.4375 20.21875 22.367188 20.21875 22.269531 19.101563 22 17.472656M298.015625 218.476563L297.980469 218.476563 297.847656 217.90625C297.691406 217.304688 297.476563 216.8125 297.210938 216.5L297.042969 216.5 295.492188 216.679688 295.492188 217.015625C295.492188 217.015625 295.660156 216.980469 295.839844 216.980469 296.574219 216.96875 296.765625 217.269531 297.066406 218.207031L297.378906 219.222656 296.574219 220.394531C296.140625 221.019531 295.9375 221.03125 295.894531 221.03125 295.703125 221.03125 295.4375 220.886719 295.191406 220.886719 294.921875 220.886719 294.757813 221.132813 294.757813 221.351563 294.757813 221.632813 294.921875 221.898438 295.402344 221.898438 296.074219 221.898438 296.441406 221.375 296.796875 220.796875L297.511719 219.636719 297.554688 219.636719 297.835938 220.761719C297.992188 221.488281 298.238281 221.910156 298.75 221.910156 299.507813 221.910156 299.976563 221.152344 300.300781 220.664063L300.066406 220.484375C299.765625 220.886719 299.554688 221.109375 299.265625 221.109375 298.917969 221.109375 298.695313 220.695313 298.382813 219.667969L298.148438 218.910156 298.828125 217.828125C299.019531 217.515625 299.175781 217.359375 299.429688 217.359375 299.578125 217.359375 299.832031 217.472656 300.011719 217.472656 300.3125 217.472656 300.523438 217.214844 300.523438 216.945313 300.523438 216.632813 300.390625 216.457031 299.96875 216.457031 299.308594 216.457031 298.863281 217.003906 298.5625 217.539063L298.015625 218.476563" />
  <g clip-path="url(#svg798183092867tikz_00001g)">
    <use xlink:href="#svg798183092867tikz_00001h" transform="translate(15 23)" />
  </g>
  <path d="M137.5 122.472656C137.367188 121.582031 137.289063 121.226563 137.042969 120.800781L136.875 120.800781 135.289063 120.921875 135.289063 121.246094C135.289063 121.246094 135.523438 121.226563 135.679688 121.226563 136.363281 121.226563 136.417969 121.773438 136.496094 122.273438L137.15625 126.199219C136.84375 126.679688 136.039063 127.742188 135.828125 127.742188 135.582031 127.742188 135.460938 127.148438 135.035156 127.148438 134.777344 127.148438 134.601563 127.292969 134.601563 127.628906 134.601563 128.039063 134.992188 128.351563 135.460938 128.351563 136.304688 128.351563 137.089844 127.09375 137.921875 125.933594 138.503906 125.128906 139.140625 124.171875 139.742188 123.109375 140.101563 122.507813 140.234375 122.007813 140.234375 121.570313 140.234375 121.089844 139.945313 120.722656 139.53125 120.722656 139.207031 120.722656 139.039063 120.921875 139.039063 121.15625 139.039063 121.582031 139.585938 121.894531 139.585938 122.183594 139.585938 122.453125 139.484375 122.71875 139.21875 123.15625L137.9375 125.21875 137.867188 125.21875 137.769531 124.101563 137.5 122.472656M151.242188 122.453125L151.242188 121.695313 144.59375 121.695313 144.59375 122.453125zM151.242188 124.726563L151.242188 123.980469 144.59375 123.980469 144.59375 124.726563 151.242188 124.726563M157.320313 120.890625L157.265625 121.347656 158.191406 121.347656 157.429688 125.507813C157.320313 126.101563 157.019531 128.21875 156.382813 128.21875 155.960938 128.21875 156.339844 127.226563 155.667969 127.226563 155.378906 127.226563 155.210938 127.472656 155.210938 127.785156 155.210938 128.175781 155.492188 128.578125 156.195313 128.578125 157.722656 128.578125 158.234375 126.078125 158.425781 125.117188L159.117188 121.347656 160.152344 121.347656 160.230469 120.890625 159.171875 120.890625 159.316406 120.097656C159.507813 119.148438 159.851563 118.492188 160.453125 118.492188 160.679688 118.492188 160.667969 118.792969 160.699219 119.046875 160.734375 119.28125 160.84375 119.472656 161.113281 119.472656 161.390625 119.472656 161.605469 119.304688 161.605469 118.972656 161.605469 118.492188 161.234375 118.167969 160.601563 118.167969 159.59375 118.167969 159.140625 118.679688 158.839844 119.203125 158.570313 119.660156 158.425781 120.265625 158.28125 120.890625L157.320313 120.890625M163.980469 123.242188C163.980469 125.695313 165.152344 127.449219 166.945313 128.375L167.128906 128.0625C165.496094 126.992188 164.894531 125.484375 164.894531 123.242188 164.894531 121.023438 165.496094 119.527344 167.128906 118.445313L166.945313 118.15625C165.152344 119.070313 163.980469 120.8125 163.980469 123.242188M171.015625 122.773438L170.980469 122.773438 170.847656 122.207031C170.691406 121.605469 170.476563 121.113281 170.210938 120.800781L170.042969 120.800781 168.492188 120.980469 168.492188 121.3125C168.492188 121.3125 168.660156 121.28125 168.839844 121.28125 169.574219 121.269531 169.765625 121.570313 170.066406 122.507813L170.378906 123.523438 169.574219 124.695313C169.140625 125.320313 168.9375 125.328125 168.894531 125.328125 168.703125 125.328125 168.4375 125.1875 168.191406 125.1875 167.921875 125.1875 167.757813 125.429688 167.757813 125.652344 167.757813 125.933594 167.921875 126.199219 168.402344 126.199219 169.074219 126.199219 169.441406 125.675781 169.796875 125.09375L170.511719 123.9375 170.554688 123.9375 170.835938 125.0625C170.992188 125.785156 171.238281 126.210938 171.75 126.210938 172.507813 126.210938 172.976563 125.453125 173.300781 124.960938L173.066406 124.78125C172.765625 125.1875 172.554688 125.40625 172.265625 125.40625 171.917969 125.40625 171.695313 124.996094 171.382813 123.96875L171.148438 123.210938 171.828125 122.128906C172.019531 121.816406 172.175781 121.660156 172.429688 121.660156 172.578125 121.660156 172.832031 121.773438 173.011719 121.773438 173.3125 121.773438 173.523438 121.515625 173.523438 121.246094 173.523438 120.933594 173.390625 120.757813 172.96875 120.757813 172.308594 120.757813 171.863281 121.304688 171.5625 121.839844L171.015625 122.773438M177.292969 123.242188C177.292969 120.8125 176.121094 119.070313 174.324219 118.15625L174.144531 118.445313C175.773438 119.527344 176.378906 121.023438 176.378906 123.242188 176.378906 125.484375 175.773438 126.992188 174.144531 128.0625L174.324219 128.375C176.121094 127.449219 177.292969 125.695313 177.292969 123.242188M136.433594 169.09375C136.300781 169.304688 136.167969 169.628906 136.167969 169.953125 136.167969 170.296875 136.402344 170.476563 136.703125 170.476563 137.058594 170.476563 137.414063 170.21875 137.414063 169.652344 137.414063 168.925781 136.890625 168.46875 136.210938 168.46875 134.09375 168.46875 133.613281 171.492188 133.601563 182.035156 133.578125 191.640625 133.621094 194.128906 132.417969 194.128906 132.195313 194.128906 132.105469 194.0625 132.105469 194.0625L132.105469 194.027344C132.207031 193.816406 132.316406 193.492188 132.316406 193.15625 132.316406 192.757813 132.082031 192.511719 131.738281 192.511719 131.359375 192.511719 131.046875 192.835938 131.046875 193.390625 131.035156 194.140625 131.539063 194.640625 132.316406 194.640625 134.058594 194.640625 134.929688 192.914063 134.929688 180.09375 134.929688 171.558594 134.839844 169.003906 136.054688 169.003906 136.324219 169.003906 136.433594 169.070313 136.433594 169.070313L136.433594 169.09375M139.585938 167.476563L140.0625 165.085938 139.78125 165.085938 138.648438 165.171875 138.648438 165.429688C138.648438 165.429688 138.8125 165.414063 138.90625 165.414063 139.09375 165.414063 139.210938 165.507813 139.210938 165.695313 139.210938 165.8125 139.179688 165.988281 139.171875 166.019531L138.257813 170.710938C138.714844 170.914063 139.140625 171 139.671875 171 141.144531 171 142.070313 169.714844 142.070313 168.382813 142.070313 167.398438 141.578125 166.871094 140.839844 166.871094 140.371094 166.871094 139.992188 167.089844 139.648438 167.476563zM139.445313 168.296875C139.65625 167.875 140.007813 167.359375 140.597656 167.359375 140.957031 167.359375 141.285156 167.617188 141.285156 168.429688 141.285156 169.636719 140.761719 170.601563 139.757813 170.601563 139.421875 170.601563 139.171875 170.425781 139.054688 170.324219L139.445313 168.296875M141.257813 192.433594L140.742188 192.433594 140.464844 192.8125 140.414063 192.8125C140.273438 192.589844 140.003906 192.371094 139.574219 192.371094 138.320313 192.371094 137.328125 193.632813 137.328125 195.277344 137.328125 196.125 137.765625 196.507813 138.328125 196.507813 138.863281 196.507813 139.402344 196.164063 139.808594 195.722656L139.90625 195.722656C139.886719 195.878906 139.863281 195.988281 139.863281 196.09375 139.863281 196.34375 140.039063 196.476563 140.351563 196.476563 140.898438 196.476563 141.21875 196.171875 141.59375 195.613281L141.398438 195.457031C141.289063 195.605469 141.0625 195.894531 140.789063 195.894531 140.65625 195.894531 140.609375 195.832031 140.609375 195.691406 140.609375 195.566406 140.664063 195.363281 140.664063 195.363281zM140.253906 193.546875C140.253906 193.828125 140.109375 194.523438 140.03125 194.832031 139.886719 195.425781 139.332031 195.910156 138.753906 195.910156 138.3125 195.910156 138.101563 195.660156 138.101563 195.011719 138.101563 193.859375 138.652344 192.714844 139.519531 192.714844 140.003906 192.714844 140.253906 193.117188 140.253906 193.546875M147.019531 179.191406L146.964844 179.648438 147.890625 179.648438 147.132813 183.808594C147.019531 184.398438 146.71875 186.519531 146.082031 186.519531 145.660156 186.519531 146.039063 185.527344 145.367188 185.527344 145.078125 185.527344 144.910156 185.773438 144.910156 186.085938 144.910156 186.476563 145.191406 186.875 145.894531 186.875 147.421875 186.875 147.933594 184.378906 148.125 183.417969L148.816406 179.648438 149.851563 179.648438 149.929688 179.191406 148.871094 179.191406 149.015625 178.398438C149.207031 177.449219 149.554688 176.789063 150.15625 176.789063 150.378906 176.789063 150.367188 177.09375 150.398438 177.347656 150.433594 177.582031 150.546875 177.773438 150.8125 177.773438 151.09375 177.773438 151.304688 177.605469 151.304688 177.273438 151.304688 176.789063 150.9375 176.46875 150.300781 176.46875 149.296875 176.46875 148.839844 176.980469 148.539063 177.503906 148.269531 177.960938 148.125 178.566406 147.980469 179.191406L147.019531 179.191406M153.78125 181.542969C153.78125 183.996094 154.953125 185.75 156.746094 186.675781L156.925781 186.363281C155.296875 185.292969 154.695313 183.785156 154.695313 181.542969 154.695313 179.324219 155.296875 177.828125 156.925781 176.746094L156.746094 176.457031C154.953125 177.371094 153.78125 179.109375 153.78125 181.542969M160.8125 181.074219L160.78125 181.074219 160.648438 180.507813C160.492188 179.90625 160.277344 179.414063 160.011719 179.101563L159.84375 179.101563 158.292969 179.28125 158.292969 179.613281C158.292969 179.613281 158.460938 179.582031 158.640625 179.582031 159.375 179.570313 159.5625 179.871094 159.867188 180.808594L160.179688 181.824219 159.375 182.992188C158.941406 183.617188 158.738281 183.628906 158.695313 183.628906 158.503906 183.628906 158.238281 183.484375 157.992188 183.484375 157.722656 183.484375 157.554688 183.730469 157.554688 183.953125 157.554688 184.234375 157.722656 184.5 158.203125 184.5 158.871094 184.5 159.242188 183.976563 159.597656 183.394531L160.3125 182.234375 160.355469 182.234375 160.636719 183.363281C160.792969 184.085938 161.039063 184.511719 161.550781 184.511719 162.308594 184.511719 162.777344 183.753906 163.101563 183.261719L162.867188 183.082031C162.566406 183.484375 162.351563 183.707031 162.0625 183.707031 161.71875 183.707031 161.496094 183.296875 161.183594 182.269531L160.949219 181.511719 161.628906 180.429688C161.820313 180.117188 161.976563 179.960938 162.230469 179.960938 162.378906 179.960938 162.632813 180.070313 162.8125 180.070313 163.113281 180.070313 163.324219 179.8125 163.324219 179.546875 163.324219 179.234375 163.191406 179.054688 162.765625 179.054688 162.109375 179.054688 161.664063 179.601563 161.359375 180.140625L160.8125 181.074219M167.09375 181.542969C167.09375 179.109375 165.921875 177.371094 164.125 176.457031L163.945313 176.746094C165.574219 177.828125 166.175781 179.324219 166.175781 181.542969 166.175781 183.785156 165.574219 185.292969 163.945313 186.363281L164.125 186.675781C165.921875 185.75 167.09375 183.996094 167.09375 181.542969M175.132813 184.199219L175.132813 183.898438 174.898438 183.898438C174.488281 183.898438 174.34375 183.785156 174.34375 183.207031L174.34375 176.523438 174.039063 176.523438 172.636719 176.914063 172.636719 177.226563C172.636719 177.226563 172.824219 177.203125 172.925781 177.203125 173.359375 177.203125 173.414063 177.304688 173.414063 177.796875L173.414063 179.257813C173.070313 179.066406 172.703125 178.988281 172.335938 178.988281 170.929688 178.988281 169.769531 180.117188 169.769531 181.957031 169.769531 183.382813 170.414063 184.488281 171.675781 184.488281 172.414063 184.488281 172.980469 184.066406 173.40625 183.6875L173.449219 183.6875 173.449219 184.457031 173.707031 184.457031zM173.414063 183.273438C173.027344 183.539063 172.726563 183.6875 172.199219 183.6875 171.253906 183.6875 170.738281 183.0625 170.738281 181.523438 170.738281 180.117188 171.375 179.4375 172.3125 179.4375 173.003906 179.4375 173.328125 179.871094 173.414063 180.328125L173.414063 183.273438M179.015625 181.074219L178.980469 181.074219 178.847656 180.507813C178.691406 179.90625 178.476563 179.414063 178.210938 179.101563L178.042969 179.101563 176.492188 179.28125 176.492188 179.613281C176.492188 179.613281 176.660156 179.582031 176.839844 179.582031 177.574219 179.570313 177.765625 179.871094 178.066406 180.808594L178.378906 181.824219 177.574219 182.992188C177.140625 183.617188 176.9375 183.628906 176.894531 183.628906 176.703125 183.628906 176.4375 183.484375 176.191406 183.484375 175.921875 183.484375 175.757813 183.730469 175.757813 183.953125 175.757813 184.234375 175.921875 184.5 176.402344 184.5 177.074219 184.5 177.441406 183.976563 177.796875 183.394531L178.511719 182.234375 178.554688 182.234375 178.835938 183.363281C178.992188 184.085938 179.238281 184.511719 179.75 184.511719 180.507813 184.511719 180.976563 183.753906 181.300781 183.261719L181.066406 183.082031C180.765625 183.484375 180.554688 183.707031 180.265625 183.707031 179.917969 183.707031 179.695313 183.296875 179.382813 182.269531L179.148438 181.511719 179.828125 180.429688C180.019531 180.117188 180.175781 179.960938 180.429688 179.960938 180.578125 179.960938 180.832031 180.070313 181.011719 180.070313 181.3125 180.070313 181.523438 179.8125 181.523438 179.546875 181.523438 179.234375 181.390625 179.054688 180.96875 179.054688 180.308594 179.054688 179.863281 179.601563 179.5625 180.140625L179.015625 181.074219M84 229.933594L83.410156 229.933594 83.007813 230.445313 82.960938 230.445313C82.773438 230.167969 82.414063 229.855469 81.847656 229.855469 80.25 229.855469 78.96875 231.53125 78.957031 233.671875 78.945313 234.796875 79.527344 235.335938 80.261719 235.335938 80.910156 235.335938 81.601563 234.964844 82.179688 234.25L82.257813 234.25C82.226563 234.453125 82.179688 234.597656 82.179688 234.808594 82.179688 235.132813 82.414063 235.3125 82.796875 235.3125 83.5 235.3125 83.957031 234.808594 84.414063 234.117188L84.191406 233.949219C84.046875 234.140625 83.722656 234.53125 83.363281 234.53125 83.1875 234.53125 83.140625 234.441406 83.140625 234.296875 83.140625 234.128906 83.195313 233.882813 83.195313 233.882813zM82.738281 231.328125C82.738281 231.71875 82.539063 232.746094 82.429688 233.191406 82.214844 233.996094 81.492188 234.597656 80.789063 234.597656 80.273438 234.597656 79.9375 234.308594 79.9375 233.324219 79.9375 231.808594 80.652344 230.28125 81.769531 230.28125 82.394531 230.28125 82.738281 230.792969 82.738281 231.328125M245.609375 231.914063L246.265625 228.535156 246.023438 228.535156 244.484375 228.65625 244.484375 228.945313C244.484375 228.945313 244.695313 228.925781 244.816406 228.925781 245.039063 228.925781 245.21875 229.003906 245.21875 229.25 245.21875 229.382813 245.183594 229.59375 245.171875 229.640625L243.914063 236.121094C244.460938 236.398438 245.027344 236.535156 245.675781 236.535156 247.660156 236.535156 248.789063 234.835938 248.789063 233.007813 248.789063 231.671875 248.097656 231.054688 247.214844 231.054688 246.621094 231.054688 246.144531 231.378906 245.664063 231.914063zM245.453125 232.875C245.6875 232.351563 246.179688 231.679688 246.890625 231.679688 247.394531 231.679688 247.804688 232.046875 247.804688 233.054688 247.804688 234.75 247.171875 236.066406 245.84375 236.066406 245.375 236.066406 245.050781 235.796875 244.90625 235.664063L245.453125 232.875" />
</svg>